<svg xmlns="http://www.w3.org/2000/svg" viewBox="0 0 256 256"><defs><style>.a{fill:#fff;}.b{fill:#555;opacity:0.05;}.c{fill:#231f20;}.d{fill:#c00c00;}</style></defs><rect class="a" width="256" height="256"/><rect class="b" width="256" height="256"/><path class="c" d="M219.62,186.83a13.48,13.48,0,0,1-4.12-10.12,13.32,13.32,0,0,1,4.06-10.11,15.37,15.37,0,0,1,20.42,0,13.46,13.46,0,0,1,4,10.11,13.62,13.62,0,0,1-4.06,10.12,14.88,14.88,0,0,1-20.3,0Z"/><path class="c" d="M30.87,188.9A46.32,46.32,0,0,1,16,182.51l7.43-16.68a47.72,47.72,0,0,0,12.45,5.71,47.25,47.25,0,0,0,13.93,2.17q13,0,13-6.51,0-3.42-3.71-5.08a68.86,68.86,0,0,0-11.94-3.48,115.38,115.38,0,0,1-15.07-4.17,25.41,25.41,0,0,1-10.4-7.14q-4.34-4.91-4.34-13.25a23,23,0,0,1,4-13.19,26.8,26.8,0,0,1,11.94-9.31q7.94-3.42,19.47-3.43a69.27,69.27,0,0,1,15.53,1.77,48,48,0,0,1,13.48,5.2l-7,16.79q-11.41-6.16-22.15-6.17c-4.5,0-7.77.67-9.83,2a6,6,0,0,0-3.08,5.2q0,3.19,3.65,4.8a66.54,66.54,0,0,0,11.77,3.31,108.92,108.92,0,0,1,15.13,4.17,26.1,26.1,0,0,1,10.4,7.08q4.39,4.86,4.39,13.19a22.5,22.5,0,0,1-4,13q-4,5.82-12,9.31T49.72,191.3A73.85,73.85,0,0,1,30.87,188.9Z"/><polygon class="d" points="145.66 109.75 115.28 189.7 139.49 189.7 155.48 141.05 170.78 189.7 195 189.7 220.92 109.75 199.34 109.75 183.09 161.25 166.44 109.75 145.66 109.75"/><path class="d" d="M229.34,78.14l-17.26-26.4a2.39,2.39,0,0,0-3.83,0L191,78.14a2.41,2.41,0,0,0-.4,1.31,2.81,2.81,0,0,0,3,2.61h4.34a1.4,1.4,0,0,1,1.48,1.3l0,7.2h0v19.18h21.58V90.85l0-7.48a1.4,1.4,0,0,1,1.48-1.3h4.34a2.81,2.81,0,0,0,3-2.61A2.41,2.41,0,0,0,229.34,78.14Z"/><rect class="d" x="115.27" y="189.7" width="24.21" height="24.21"/><polygon class="c" points="89.35 109.75 112.65 109.75 127.62 157.22 115.28 189.7 89.35 109.75"/></svg>